<svg width="16" height="16" viewBox="0 0 16 16" fill="none" xmlns="http://www.w3.org/2000/svg">
<path fill-rule="evenodd" clip-rule="evenodd" d="M1.15704 14.843C0.794166 14.4801 0.806347 13.8796 1.18425 13.5017L13.5007 1.18525C13.8786 0.807357 14.4791 0.795176 14.8419 1.15805C15.2048 1.52092 15.1926 2.12143 14.8147 2.49933L2.49832 14.8157C2.12042 15.1936 1.51991 15.2058 1.15704 14.843Z" fill="#99C6FF"/>
<path fill-rule="evenodd" clip-rule="evenodd" d="M1.15717 1.15704C1.52004 0.794166 2.12056 0.806347 2.49845 1.18425L14.8149 13.5007C15.1928 13.8786 15.2049 14.4791 14.8421 14.8419C14.4792 15.2048 13.8787 15.1926 13.5008 14.8147L1.18438 2.49832C0.806481 2.12042 0.7943 1.51991 1.15717 1.15704Z" fill="#99C6FF"/>
</svg>
