<svg width="90" height="116" viewBox="0 0 90 116" fill="none" xmlns="http://www.w3.org/2000/svg">
<path d="M-15.8273 75.9226L37.5421 2.51713C39.5302 -0.219759 43.3515 -0.813616 46.0884 1.1745L87.4516 31.2545C90.1885 33.2426 90.7824 37.0639 88.7942 39.8008L35.4507 113.206C33.4626 115.943 29.6412 116.537 26.9044 114.549L-14.4588 84.4689C-17.2215 82.4808 -17.8154 78.6595 -15.8273 75.9226Z" fill="#99C6FF"/>
<path d="M7.47753 100.415L68.0488 17.1125L81.1007 26.6029L20.5294 109.905L7.47753 100.415Z" fill="#3300FF"/>
<path d="M30.5709 39.4911L51.3041 10.9861C51.5623 10.6246 52.0787 10.5472 52.4402 10.8054L52.6467 10.9345C53.0082 11.1927 53.0857 11.709 52.8275 12.0705L32.0942 40.5755C31.836 40.937 31.3196 41.0144 30.9581 40.7562L30.7516 40.6271C30.3901 40.3689 30.3127 39.8526 30.5709 39.4911Z" fill="#3300FF"/>
<path d="M30.4932 31.7968L47.5858 8.27503C47.844 7.91355 48.3604 7.8361 48.7219 8.0943L48.9285 8.2234C49.2899 8.4816 49.3674 8.99798 49.1092 9.35946L32.0165 32.8812C31.7583 33.2427 31.2419 33.3202 30.8805 33.062L30.6739 32.9329C30.3124 32.6747 30.235 32.1583 30.4932 31.7968Z" fill="#3300FF"/>
<path d="M23.1607 34.0947L43.8939 5.58973C44.1521 5.22826 44.6685 5.1508 45.03 5.40899L45.2366 5.53809C45.598 5.79629 45.6755 6.31269 45.4173 6.67417L24.6582 35.1791C24.4 35.5406 23.8836 35.6181 23.5222 35.3599L23.3156 35.2308C22.9541 34.9468 22.8767 34.4562 23.1607 34.0947Z" fill="#3300FF"/>
<path d="M-5.60299 73.6247L0.903587 64.6653C2.06547 63.0645 4.28597 62.7288 5.88679 63.8649L9.0368 66.1628C10.6376 67.3247 10.9733 69.5452 9.83721 71.146L3.33064 80.1055C2.16875 81.7063 -0.0517416 82.042 -1.65257 80.9059L-4.80257 78.6079C-6.4034 77.446 -6.76488 75.2255 -5.60299 73.6247Z" fill="#3300FF"/>
</svg>
