<svg width="40" height="72" viewBox="0 0 40 72" fill="none" xmlns="http://www.w3.org/2000/svg">
<path d="M31.1182 0.223022C22.5461 3.65705 16.2202 8.45952 11.6243 13.9591C13.4833 17.419 15.6006 21.5759 15.6006 21.5759L8.7067 17.9095C-6.29456 40.6051 2.79398 71.8211 2.79398 71.8211C21.7715 64.6174 31.5572 54.7801 36.1014 44.6846C34.0617 42.7481 30.9891 39.9079 30.9891 39.9079L37.3924 41.3538C39.1223 36.2674 39.6129 31.1809 39.3805 26.4042C36.0498 25.6554 32.2801 24.7518 32.2801 24.7518L38.9416 21.8341C37.1084 9.51813 31.1182 0.223022 31.1182 0.223022Z" fill="#55769F"/>
<path d="M36.0765 44.7103C34.0368 42.7738 30.9642 39.9336 30.9642 39.9336L37.3675 41.3795C39.0974 36.293 39.588 31.2066 39.3556 26.4299C36.0249 25.6811 32.2552 24.7775 32.2552 24.7775L38.9167 21.8598C37.1093 9.49218 31.1449 0.2229 31.1449 0.2229C11.1863 25.2422 2.79489 71.821 2.79489 71.821C21.7466 64.6173 31.5581 54.78 36.0765 44.7103Z" fill="#07085B"/>
</svg>
