<svg width="109" height="90" viewBox="0 0 109 90" fill="none" xmlns="http://www.w3.org/2000/svg">
<path d="M108.185 0.981685C91.7122 -1.31627 77.563 0.568575 65.4536 5.08703C65.247 12.1358 64.8597 20.5272 64.8597 20.5272L57.3462 8.62432C13.6592 30.726 0.0263672 87.6327 0.0263672 87.6327C36.1223 93.2872 60.2122 86.6257 76.272 74.9036C74.8003 70.0753 72.5282 62.8974 72.5282 62.8974L81.2553 70.9015C88.4848 64.4724 93.7778 56.9589 97.6766 49.2904C93.1065 45.1592 88.0458 40.3568 88.0458 40.3568L101.059 41.7252C109.244 20.8113 108.185 0.981685 108.185 0.981685Z" fill="#02CCC0"/>
<path d="M76.2457 74.9036C74.7739 70.0753 72.5018 62.8975 72.5018 62.8975L81.2289 70.9016C88.4584 64.4725 93.7514 56.9589 97.6502 49.2904C93.0801 45.1593 88.0195 40.3568 88.0195 40.3568L101.033 41.7253C109.243 20.8113 108.185 0.955933 108.185 0.955933C54.6862 22.2572 0 87.6069 0 87.6069C36.1218 93.2873 60.1858 86.6258 76.2457 74.9036Z" fill="#06BFAD"/>
</svg>
