<svg width="97" height="54" viewBox="0 0 97 54" fill="none" xmlns="http://www.w3.org/2000/svg">
<path d="M96.9932 15.7433C86.8202 7.79081 76.5956 3.53054 66.6808 1.85226C63.789 6.52563 60.2517 11.9994 60.2517 11.9994L59.8386 1.07767C21.8836 -1.09119 -9.43576 31.8548 -9.43576 31.8548C12.6143 49.7221 31.3852 54.6278 46.748 53.0012C47.6517 49.1798 48.9168 43.4737 48.9168 43.4737L51.6795 52.2524C59.0382 50.7548 65.5189 47.7598 71.1218 44.1192C69.6759 39.5749 68.1267 34.3593 68.1267 34.3593L76.3374 40.3495C89.9702 29.5052 96.9932 15.7433 96.9932 15.7433Z" fill="#FEB546"/>
<path d="M46.749 53.0011C47.6526 49.1798 48.9178 43.4736 48.9178 43.4736L51.6805 52.2523C59.0391 50.7548 65.5199 47.7597 71.1228 44.1191C69.6769 39.5748 68.1277 34.3592 68.1277 34.3592L76.3384 40.3494C89.9712 29.5052 96.9941 15.7432 96.9941 15.7432C52.7391 9.21084 -9.43478 31.8547 -9.43478 31.8547C12.6153 49.722 31.3862 54.6278 46.749 53.0011Z" fill="#F4A640"/>
</svg>
