<svg width="132" height="140" viewBox="0 0 132 140" fill="none" xmlns="http://www.w3.org/2000/svg">
<path d="M42.9756 21.2617C43.3618 26.2333 46.5897 31.6085 51.8206 36.0373C56.7165 40.163 62.8504 43.0858 69.2335 44.3471C69.7908 44.4572 70.348 44.5673 70.9103 44.6521L72.8757 44.9615L73.7522 45.1873C74.3045 45.3227 74.8568 45.4582 75.414 45.5683C81.8225 46.8346 88.602 46.4898 94.6992 44.5363C101.216 42.4553 106.276 38.6914 108.52 34.2656C111.368 28.6434 109.672 22.5709 103.828 17.6524C100.621 14.966 96.9681 14.0072 93.2382 14.902C88.0407 16.1647 82.7908 21.0228 77.6451 29.3492C76.3284 31.4841 75.1787 33.573 74.246 35.3626C74.0642 33.3528 73.8157 31.0139 73.405 28.5641C71.8129 18.9062 68.8053 12.4165 64.504 9.27681C61.4251 7.01034 57.6566 6.50254 53.6693 7.76755C46.3828 10.0124 42.4851 14.9534 42.9756 21.2617ZM79.097 39.7163C80.0647 37.7494 81.4158 35.1739 83.0402 32.5471C87.167 25.9143 91.3198 21.8133 94.7461 20.9901C95.2977 20.8622 96.0317 20.7441 96.8929 20.9143C97.7288 21.0794 98.6969 21.5076 99.7776 22.4317C103.344 25.4263 104.41 28.4266 102.912 31.3416C100.175 36.8015 89.8907 41.0332 79.097 39.7163ZM55.5718 13.7231C56.9178 13.3048 57.976 13.277 58.8119 13.4422C59.6731 13.6124 60.2867 13.9704 60.7685 14.3289C63.5988 16.3883 65.8748 21.786 67.1686 29.4899C67.6719 32.5371 67.9419 35.4329 68.0888 37.6201C57.6357 34.7123 49.7385 26.8616 49.2535 20.7914C49.0129 17.4803 51.1342 15.136 55.5718 13.7231Z" fill="#FF5B7E"/>
<path d="M14.4789 120.459L93.9747 136.246C98.2554 137.092 102.411 134.308 103.257 130.027L117.167 59.8984C118.013 55.6176 115.228 51.4617 110.948 50.6159L31.452 34.8287C27.1712 33.9828 23.0153 36.7673 22.1695 41.0481L8.25956 111.177C7.4187 115.432 10.2032 119.588 14.4789 120.459Z" fill="#FEB546"/>
<path d="M15.2419 76.1047L110.24 94.955L116.757 62.107C117.843 56.6104 114.27 51.2461 108.774 50.16L33.6856 35.2438C28.189 34.1576 22.8247 37.7298 21.7385 43.2264L15.2419 76.1047Z" fill="#F4A640"/>
<path d="M15.7375 64.9381L114.053 84.4441C116.89 85.0046 119.621 83.1754 120.181 80.3384L124.506 58.585C125.066 55.7481 123.237 53.0179 120.4 52.4573L22.0843 32.9513C19.2474 32.3908 16.5172 34.22 15.9567 37.0569L11.6319 58.8104C11.0713 61.6473 12.9006 64.3775 15.7375 64.9381Z" fill="#FEB546"/>
<path d="M42.8403 126.068L64.4937 130.366L81.4914 44.7405L59.838 40.442L42.8403 126.068Z" fill="#FF5B7E"/>
<path d="M51.3427 83.2611L72.9961 87.5596L75.1428 76.7456L53.4894 72.4471L51.3427 83.2611Z" fill="#E03268"/>
</svg>
