<svg width="93" height="44" viewBox="0 0 93 44" fill="none" xmlns="http://www.w3.org/2000/svg">
<path d="M92.8185 18.9036C85.2275 10.8995 77.1201 5.99372 68.9869 3.30846C65.966 6.87159 62.2738 11.0802 62.2738 11.0802L63.3066 1.78509C31.4967 -4.8764 0.848633 18.981 0.848633 18.981C17.2183 36.8741 32.452 43.4065 45.6459 44.0004C46.8852 40.8762 48.6926 36.2286 48.6926 36.2286L49.9061 44.0004C56.3094 43.6647 62.1705 41.9864 67.3602 39.611C66.7148 35.5831 66.0693 30.9872 66.0693 30.9872L72.2402 37.0807C85.15 29.6446 92.8185 18.9036 92.8185 18.9036Z" fill="#FF5B7E"/>
<path d="M45.62 44.0003C46.8593 40.8762 48.6667 36.2286 48.6667 36.2286L49.8802 44.0003C56.2835 43.6647 62.1446 41.9864 67.3344 39.611C66.6889 35.5831 66.0434 30.9872 66.0434 30.9872L72.2143 37.0807C85.15 29.6446 92.8184 18.9036 92.8184 18.9036C56.2577 7.77527 0.822754 18.981 0.822754 18.981C17.1925 36.8999 32.4519 43.4065 45.62 44.0003Z" fill="#E03268"/>
</svg>
