<svg width="295" height="172" viewBox="0 0 295 172" fill="none" xmlns="http://www.w3.org/2000/svg">
<path d="M236.786 41.4526C244.502 41.3419 252.437 41.3146 260.589 41.3709C272.945 41.4561 271.118 42.5279 277.474 41.4561C281.343 40.8036 283.538 39.5369 284.663 39.7135C285.386 39.827 285.667 40.5364 285.667 42.3876C285.667 45.5424 284.257 52.1195 281.438 62.1191L264.393 99.1241L258.043 116.242C256.056 121.599 250.98 125.183 245.267 125.263L204.747 125.827L228.892 44.5814C229.456 42.6819 231.213 41.3883 233.195 41.4135L236.299 41.453C236.462 41.455 236.624 41.4549 236.786 41.4526Z" fill="#F79503"/>
<path d="M265.6 131.048C265.497 132.193 264.534 133.09 263.362 133.09H259.39L269.423 170.531C269.417 170.671 268.644 170.982 267.606 171.26C267.127 171.388 266.642 171.495 266.311 171.538C265.98 171.58 265.766 171.58 265.748 171.516L255.452 133.09H20.7642L10.4679 171.516C10.3934 171.634 9.5687 171.517 8.5303 171.239C8.05104 171.11 7.57755 170.96 7.26957 170.832C6.96159 170.703 6.7763 170.596 6.79359 170.531L16.826 133.09H14.0299C12.7885 133.09 11.7822 132.083 11.7822 130.842C11.7822 129.6 12.7885 128.594 14.0299 128.594H261.691L290.626 44.5591C291.03 43.3853 292.309 42.7614 293.483 43.1656C294.657 43.5697 295.281 44.8489 294.877 46.0227L265.6 131.048Z" fill="#E1E5F0"/>
<path d="M25.2668 40.9803L25.0908 41.0903C24.4346 41.5411 24.2549 42.4282 24.6764 43.1027L54.3563 89.5562C54.8071 90.2124 55.6941 90.3921 56.3686 89.9706L56.5446 89.8607C57.2008 89.4099 57.3805 88.5228 56.959 87.8483L27.2975 41.4241C26.8577 40.7202 25.9706 40.5405 25.2668 40.9803ZM101.419 125.48L45.7428 125.48C44.8834 125.48 44.1866 126.177 44.1866 127.036C44.1866 127.896 44.8833 128.592 45.7428 128.592L101.419 128.592C102.278 128.592 102.975 127.896 102.975 127.036C102.975 126.177 102.278 125.48 101.419 125.48Z" fill="#FFCB3D"/>
<path d="M27.0406 41.0297C27.147 41.1227 27.2422 41.2338 27.3225 41.3623L56.984 87.7865C57.1287 88.0181 57.2025 88.2746 57.2106 88.53L74.3499 78.2863L61.8449 55.2724L54.6936 52.4418C52.7399 51.9908 50.8301 51.3491 48.9827 50.5462C44.5512 48.5443 43.4627 46.7371 37.6787 43.0929C36.1245 42.1067 34.5484 41.2158 32.855 40.3982C31.8653 40.1195 29.9775 39.7088 28.3499 40.2365C28.0787 40.3245 27.844 40.4711 27.6204 40.57C27.4013 40.7069 27.2091 40.8629 27.0406 41.0297ZM45.5657 125.431C45.6319 125.423 45.6993 125.418 45.7678 125.418L101.444 125.418C101.52 125.418 101.596 125.424 101.669 125.434L101.669 102.31L78.0118 102.31C73.5449 105.377 70.8389 107.383 69.8937 108.328C68.4758 109.746 66.9197 111.025 65.2598 112.166C61.2137 114.864 59.1043 114.829 52.9488 117.803C51.2889 118.599 49.6981 119.463 48.1074 120.466C46.5166 121.469 45.9979 122.541 45.5829 124.201C45.5138 124.477 45.5138 124.754 45.4792 124.996C45.4792 125.156 45.5103 125.3 45.5657 125.431Z" fill="#474961"/>
<path d="M65.2008 66.9634L60.2511 51.7771C59.4194 49.2251 60.5392 46.4442 62.9074 45.1808L73.484 39.5382C78.7261 31.3559 85.9696 25.997 96.0771 30.0995C96.389 30.2261 96.7113 30.3615 97.044 30.5057L96.7506 30.3369C113.707 20.8443 124.179 15.5526 128.167 14.4617C132.155 13.3708 136.203 14.9529 140.313 19.2078L183.288 79.2655C209.446 80.8273 222.559 88.5285 222.627 102.369C222.695 116.21 215.281 124.654 200.386 127.701C185.695 128.928 173.624 128.504 164.171 126.429C153.46 127.005 144.29 125.592 136.659 122.189C124.396 116.72 112.93 104.692 102.261 86.1067L101.728 102.618H65.6139C63.704 102.618 62.1557 101.07 62.1557 99.16C62.1557 99.0832 62.1583 99.0065 62.1634 98.9298C63.0184 86.1128 64.0308 75.4573 65.2008 66.9634Z" fill="#99C6FF"/>
<path opacity="0.176986" d="M164.246 126.425C153.503 127.012 144.307 125.6 136.659 122.189C124.396 116.72 112.93 104.692 102.261 86.1067L101.728 102.618H65.6139C63.704 102.618 62.1558 101.07 62.1558 99.16C62.1558 99.0833 62.1583 99.0065 62.1634 98.9299C64.0554 70.5667 66.7186 52.7887 70.1529 45.5958C75.5242 34.3461 83.6285 25.0468 96.0771 30.0995C96.5176 30.2783 96.9787 30.4746 97.4606 30.6885L120.668 44.0452L123.269 55.5712C129.381 88.9511 137.181 109.869 146.669 118.326C150.87 122.071 156.729 124.771 164.246 126.425Z" fill="#444444"/>
<path d="M222.066 36.3619C225.105 36.5412 228.652 37.409 231.853 39.897C235.624 42.8092 237.145 46.1324 239.896 52.8328C242.181 58.3975 244.146 63.3227 241.891 66.2122C240.241 68.3272 237.349 68.3272 235.406 68.1953C232.527 67.631 229.848 67.4199 227.24 67.3328L221.034 80.8382C220.404 82.6086 216.016 93.7155 214.725 95.0862C211.035 99.0323 201.662 95.1122 186.607 83.3259C182.807 79.9272 181.748 75.8596 183.428 71.1232C184.393 68.0953 185.295 65.2859 186.132 62.695C184.207 62.4348 181.416 61.7356 180.254 59.6315C178.483 56.4221 181.421 51.9012 184.731 46.8804C188.685 40.8198 190.814 37.8494 195.049 35.6819C197.655 34.3556 200.278 33.8885 202.67 33.8784C207.116 32.9283 214.022 32.7045 222.066 36.3619Z" fill="#FFCB3D"/>
<path opacity="0.176986" d="M186.011 62.7507C184.102 62.4643 181.494 61.7378 180.381 59.7225C178.61 56.5131 181.656 52.0563 184.858 46.9714C188.757 40.781 190.941 37.7171 195.176 35.5496C197.623 34.304 200.086 33.8457 202.358 33.8203C200.571 34.2208 199.202 34.7338 198.343 35.1412C196.172 36.1599 195.567 37.027 193.978 39.8606C193.085 41.4532 190.429 49.0832 186.011 62.7507Z" fill="#8C2A00"/>
<path d="M164.479 44.9675L164.478 45.0081L188.567 45.3355C189.57 45.3461 190.406 44.5189 190.417 43.5161L190.467 40.6796C190.478 39.6768 189.651 38.8405 188.648 38.8299L164.607 38.5282L164.607 38.5043L162.028 40.2003C160.902 40.9195 160.871 42.5088 161.971 43.2323L164.479 44.9675Z" fill="#474BFF"/>
<path d="M215.813 27.9206C216.388 29.7268 217.314 32.0833 218.592 34.9899C216.997 34.4494 215.273 34.0367 213.422 33.7519C210.644 33.3246 209.398 33.2851 208.013 33.2818L207.755 31.1528C205.623 31.8876 205.745 31.821 205.555 31.9038C204.047 32.275 202.518 32.368 201 32.2538C198.04 31.9255 194.799 26.3536 193.549 18.4966C193.445 17.8332 193.409 17.208 193.372 16.5827L193.322 10.2776C193.294 8.82177 193.643 7.45489 194.33 6.24424C194.597 5.77343 194.933 5.30625 195.269 4.83906C199.119 0.0889201 205.763 0.852629 206.999 1.05592C207.137 1.06316 207.273 1.10493 207.446 1.11398C208.709 1.45722 209.949 1.59144 211.226 1.65841C211.814 1.68917 212.241 2.12711 212.21 2.71419L212.048 11.7439C212.052 12.3327 214.903 11.7803 215.528 11.7439C217.193 11.6926 219.407 13.0557 220.009 14.7841C220.467 16.6088 220.163 19.1218 218.955 20.3744C218.516 20.8131 217.479 23.3238 215.842 27.9065C215.836 27.9097 215.827 27.9144 215.813 27.9206ZM184.614 45.2934L186.489 45.3189C187.328 46.8785 188.123 48.346 188.802 49.5851C189.539 50.3121 190.059 50.8228 190.13 50.9011L214.761 77.1987C214.761 77.1987 215.54 69.4042 215.69 67.0174C222.355 67.5694 228.263 66.7952 235.406 68.1953C236.449 68.2661 237.797 68.2694 239.07 67.9591C238.582 72.0985 237.814 77.6524 236.498 84.151C232.542 103.664 229.026 105.694 227.474 106.29C226.15 106.799 222.083 107.941 214.762 102.788C211.825 100.118 208.863 97.2473 205.909 94.1906C197.583 85.5928 190.511 76.7984 184.496 68.1405C183.427 70.9488 182.83 72.9809 182.705 74.237C182.584 75.4574 182.898 77.0561 183.52 79.2656C183.537 79.3254 183.459 79.3254 183.288 79.2656L178.432 72.5543C178.962 71.6917 180.004 68.7732 181.558 63.7987C179.232 60.2677 177.079 56.7692 175.083 53.326L168.059 45.1248C167.42 44.3484 167.477 43.2003 168.267 42.5301L168.97 41.9723C169.286 41.7043 169.66 41.565 170.037 41.5418L169.561 40.986C168.922 40.2096 168.979 39.0615 169.769 38.3914L170.472 37.8336C170.986 37.3983 171.644 37.2831 172.226 37.4724C172.112 36.8524 172.313 36.1929 172.84 35.746L173.543 35.1881C174.333 34.518 175.485 34.6522 176.137 35.397L176.87 36.252C176.319 33.8688 176.515 31.6115 178.798 30.8658C178.798 30.8658 180.694 34.4609 182.987 38.7705L178.984 38.7203L184.614 45.2934Z" fill="#F2A98A"/>
<path d="M227.001 13.0088C227.128 13.6714 227.228 14.3027 227.36 14.9357C227.84 15.0301 228.352 15.1608 228.927 15.4333C229.332 15.6277 232.108 16.8467 233.263 19.262C234.915 22.7422 233.137 28.2589 227.802 31.6153C227.516 31.7735 227.269 31.8644 227.269 31.8644C226.351 32.1973 225.484 32.2211 224.583 32.2431C224.41 32.234 224.201 32.2577 224.201 32.2577C222.315 32.1358 220.305 32.0047 218.172 31.8644C216.982 31.6728 216.222 30.6554 215.893 28.8122C215.803 28.3094 215.766 27.6935 215.752 26.9998C215.66 25.7201 215.496 23.3827 215.381 21.5106C216.531 21.363 217.597 20.8302 218.402 20.0069C219.68 18.7579 220.09 16.8748 219.523 15.1483C218.921 13.4199 217.192 12.048 215.527 12.0993C214.902 12.1358 214.302 12.3468 213.731 12.6631C213.012 13.1795 212.39 13.8049 212.001 14.6156L210.303 18.6128L210.333 18.6385C210.31 18.6417 210.288 18.644 210.267 18.6455C207.168 18.9679 205.807 7.26131 199.195 5.25257C197.661 4.79125 195.997 4.95109 195.05 5.1785C197.896 -0.318652 206.97 0.848503 207.143 0.857553C209.204 1.17335 211.121 1.68749 212.226 1.74541C217.675 2.1695 219.818 1.58922 222.508 3.11537C223.517 3.68768 224.448 4.42903 225.124 5.39946C226.94 7.93666 227.132 10.951 227.001 13.0088ZM197.793 15.2312C197.451 15.144 197.371 14.6896 197.625 14.4605C197.985 14.2024 198.552 13.9551 199.241 14.0258C200.722 14.1727 202.191 15.2193 200.55 15.4795C199.57 15.6706 198.474 15.44 197.793 15.2312ZM191.929 14.7853C191.589 14.6636 191.544 14.2111 191.865 14.0202C192.258 13.7983 192.789 13.5837 193.543 13.7272C194.984 13.9758 196.377 15.1569 194.672 15.31C193.629 15.3938 192.609 15.0287 191.929 14.7853Z" fill="#482D1F"/>
<path d="M194.744 16.6415C194.729 16.4512 194.87 16.2842 195.06 16.2684C195.251 16.2527 195.418 16.3943 195.434 16.5846L195.603 18.6366L195.604 18.6799L195.446 22.3414C195.457 22.3833 195.489 22.4122 195.534 22.4188C195.653 22.4132 195.774 22.4162 195.908 22.4265C196.012 22.4346 196.091 22.4435 196.274 22.466C196.805 22.5314 197.037 22.532 197.337 22.4361C197.519 22.3778 197.714 22.4781 197.772 22.66C197.83 22.8419 197.73 23.0365 197.548 23.0948C197.125 23.2303 196.815 23.2295 196.189 23.1524C196.017 23.1312 195.944 23.1231 195.854 23.1161C195.74 23.1072 195.641 23.1052 195.548 23.1106L195.51 23.1108C195.107 23.0896 194.799 22.7859 194.756 22.4009L194.754 22.3471L194.912 18.6719L194.744 16.6415Z" fill="#482D1F"/>
<path d="M198.141 25.5553C198.384 25.5249 199.009 25.3975 199.154 25.0195C199.155 24.9504 199.226 24.8479 199.192 24.7781C199.092 24.6034 198.02 24.5847 198.02 24.5847C196.602 24.5946 196.257 24.5194 196.15 24.6904C196.114 24.7936 196.111 24.9319 196.348 25.2473C196.614 25.8399 197.76 25.6178 198.141 25.5553Z" fill="#482D1F"/>
<path d="M207.638 31.1472L210.497 30.1197L207.998 33.1717L207.638 31.1472Z" fill="#482D1F"/>
<path d="M194.222 19.2688C193.772 19.9377 192.681 18.2876 192.982 17.1607C193.076 16.6808 193.395 16.559 193.638 16.5371C194.018 16.557 194.418 16.855 194.429 17.3058C194.502 17.8983 194.555 18.8706 194.222 19.2688ZM199.837 19.4436C199.352 20.1108 198.295 18.4625 198.597 17.3355C198.691 16.8557 199.009 16.7338 199.253 16.712C199.633 16.7319 200.032 17.0298 200.043 17.4806C200.116 18.0731 200.204 19.0473 199.837 19.4436Z" fill="#482D1F"/>
<path d="M146.118 24.7024C145.222 25.3529 145.023 26.6087 145.674 27.504L175.33 68.3224C175.981 69.2176 177.236 69.4165 178.132 68.7661C179.027 68.1156 179.226 66.8598 178.575 65.9645L148.919 25.1461C148.269 24.2509 147.013 24.052 146.118 24.7024Z" fill="#474961"/>
<path opacity="0.2" d="M181.6 63.9268C180.038 68.9285 178.991 71.862 178.459 72.7272L183.316 79.4385C183.487 79.4983 183.564 79.4983 183.547 79.4385C182.925 77.229 182.611 75.6303 182.732 74.4099C182.859 73.1399 183.468 71.0766 184.559 68.2199L181.6 63.9268Z" fill="#8C2A00"/>
<path d="M215.218 58.749C215.196 58.7811 215.153 58.8467 215.092 58.9422C214.989 59.1037 214.877 59.2879 214.76 59.4911C214.312 60.2727 213.93 61.0966 213.683 61.8975C213.025 64.0309 213.451 65.4075 215.386 65.9092C215.664 65.9811 215.83 66.2642 215.758 66.5415C215.686 66.8188 215.403 66.9854 215.126 66.9135C212.503 66.2336 211.88 64.2214 212.691 61.5917C212.964 60.7078 213.377 59.8179 213.86 58.9752C213.985 58.7572 214.105 58.5591 214.217 58.3842C214.285 58.2778 214.336 58.2018 214.365 58.1596C214.527 57.9238 214.85 57.8646 215.086 58.0274C215.322 58.1902 215.381 58.5132 215.218 58.749Z" fill="#482D1F"/>
</svg>
