<svg width="135" height="165" viewBox="0 0 135 165" fill="none" xmlns="http://www.w3.org/2000/svg">
<path d="M41.5869 164.36L134.982 130.078L93.3951 16.7826L0.000105969 51.0645L41.5869 164.36Z" fill="#FEB546"/>
<path d="M88.2956 147.192L134.981 130.055L93.3941 16.7597L46.7088 33.8963L88.2956 147.192Z" fill="#F4A640"/>
<path d="M79.5865 32.9223C80.5935 32.4833 81.0324 31.2956 80.5418 30.3145C78.941 27.0612 75.0939 20.0124 69.2844 13.5058C58.7758 1.75786 46.8729 -2.45076 34.8409 1.37056C28.1794 3.48778 23.222 7.61893 20.1236 13.6607C13.1007 27.3194 17.5417 46.71 19.22 52.8809C19.504 53.9395 20.6142 54.5334 21.6728 54.1977C22.654 53.8879 23.1962 52.8551 22.938 51.8739C21.3888 46.1678 17.206 27.7583 23.5319 15.4423C26.1655 10.3558 30.3483 6.84434 36.0028 5.06278C46.6147 1.68039 56.8393 5.39844 66.4184 16.0878C71.918 22.2329 75.5844 28.9977 77.1078 32.0444C77.5725 32.9223 78.657 33.3354 79.5865 32.9223Z" fill="#DAEEF7"/>
</svg>
