<svg width="276" height="212" viewBox="0 0 276 212" fill="none" xmlns="http://www.w3.org/2000/svg">
<path d="M10.8876 0H265.112C271.125 0 276 4.8697 276 10.8768V208.29C276 210.092 274.538 211.553 272.734 211.553H3.26627C1.46236 211.553 0 210.092 0 208.29V10.8768C0 4.8697 4.87453 0 10.8876 0Z" fill="#F2F6FB"/>
<path d="M102.879 46.9339H16.9093C16.4691 46.9339 16.1123 47.899 16.1123 49.0896V105.722C16.1123 106.913 16.4691 107.878 16.9093 107.878H102.879C103.319 107.878 103.676 106.913 103.676 105.722V49.0896C103.676 47.899 103.319 46.9339 102.879 46.9339Z" fill="#F79503"/>
<path d="M54.8515 91.8574C53.4408 91.8574 52.2832 90.6998 52.2832 89.289C52.2832 87.8783 53.4408 86.7207 54.8515 86.7207C56.2623 86.7207 57.4199 87.8783 57.4199 89.289C57.4199 90.6998 56.2623 91.8574 54.8515 91.8574ZM54.8515 87.4984C53.8749 87.4984 53.0609 88.2943 53.0609 89.289C53.0609 90.2657 53.8568 91.0796 54.8515 91.0796C55.8282 91.0796 56.6422 90.2838 56.6422 89.289C56.6241 88.2943 55.8282 87.4984 54.8515 87.4984Z" fill="white"/>
<path d="M65.1973 91.8574C63.7865 91.8574 62.6289 90.6998 62.6289 89.289C62.6289 87.8783 63.7865 86.7207 65.1973 86.7207C66.608 86.7207 67.7656 87.8783 67.7656 89.289C67.7656 90.6998 66.608 91.8574 65.1973 91.8574ZM65.1973 87.4984C64.2206 87.4984 63.4066 88.2943 63.4066 89.289C63.4066 90.2657 64.2025 91.0796 65.1973 91.0796C66.1739 91.0796 66.9879 90.2838 66.9879 89.289C66.9879 88.2943 66.192 87.4984 65.1973 87.4984Z" fill="white"/>
<path d="M80.4445 62.5747C80.3902 62.3939 80.1732 62.2853 79.9742 62.3215L72.8299 63.877C72.6852 63.9132 72.5586 64.0217 72.5405 64.1483L71.817 67.7838C71.7809 67.9465 71.6181 68.0732 71.4372 68.0732H43.2759C43.0046 68.0732 42.8237 68.3083 42.9141 68.5253L48.919 83.1576C48.9733 83.3023 49.118 83.3928 49.2807 83.3928H68.2177C68.4529 83.3928 68.6518 83.5917 68.5976 83.7907L68.1997 85.7079C68.1635 85.8707 68.0007 85.9973 67.8198 85.9973H51.8672C51.6501 85.9973 51.4693 86.142 51.4693 86.3409C51.4693 86.5218 51.6501 86.6846 51.8672 86.6846H68.471C68.6699 86.6846 68.8327 86.558 68.8508 86.3952L72.4501 68.5072L72.5405 68.0912L73.2097 64.7271C73.2278 64.6005 73.3544 64.4919 73.4991 64.4558L80.137 63.0088C80.3721 62.9365 80.4988 62.7556 80.4445 62.5747ZM46.423 73.6982H51.1618C51.3427 73.6982 51.5054 73.8067 51.5416 73.9695L52.4098 77.7135C52.464 77.9305 52.2651 78.1295 52.03 78.1295H47.9423C47.7795 78.1295 47.6348 78.039 47.5806 77.8943L46.0432 74.1504C45.9527 73.9152 46.1517 73.6982 46.423 73.6982ZM52.7534 73.6982H57.6007C57.8178 73.6982 57.9986 73.8429 57.9986 74.0418V77.7858C57.9986 77.9667 57.8178 78.1295 57.6007 78.1295H53.6397C53.4588 78.1295 53.296 78.021 53.2599 77.8582L52.3917 74.1142C52.3193 73.8971 52.5183 73.6982 52.7534 73.6982ZM58.7764 72.6672V69.1041C58.7764 68.9232 58.9572 68.7605 59.1743 68.7605H64.0216C64.2567 68.7605 64.4376 68.9413 64.4195 69.1403L63.9854 72.7034C63.9673 72.8843 63.8045 73.0109 63.5875 73.0109H59.1924C58.9572 73.0109 58.7764 72.8481 58.7764 72.6672ZM63.8045 74.0599L63.3343 77.8039C63.3162 77.9848 63.1534 78.1114 62.9364 78.1114H59.1743C58.9572 78.1114 58.7764 77.9667 58.7764 77.7677V74.0238C58.7764 73.8429 58.9572 73.6801 59.1743 73.6801H63.4066C63.6418 73.6982 63.8226 73.861 63.8045 74.0599ZM57.6007 73.0109H52.446C52.2651 73.0109 52.1023 72.9023 52.0661 72.7396L51.2341 69.1765C51.1799 68.9594 51.3788 68.7605 51.614 68.7605H57.6188C57.8359 68.7605 58.0167 68.9051 58.0167 69.1041V72.6672C57.9986 72.8481 57.8178 73.0109 57.6007 73.0109ZM57.9986 79.1423V82.3618C57.9986 82.5427 57.8178 82.7055 57.6007 82.7055H54.7068C54.526 82.7055 54.3632 82.597 54.327 82.4342L53.5673 79.2147C53.5131 78.9976 53.712 78.7987 53.9472 78.7987H57.6007C57.8178 78.7987 57.9986 78.9615 57.9986 79.1423ZM59.1743 78.7987H62.7736C63.0087 78.7987 63.1896 78.9796 63.1715 79.1785L62.7736 82.398C62.7555 82.5789 62.5927 82.7055 62.3757 82.7055H59.1743C58.9572 82.7055 58.7764 82.5608 58.7764 82.3618V79.1423C58.7764 78.9615 58.9572 78.7987 59.1743 78.7987ZM64.3471 78.7987H69.104C69.3391 78.7987 69.5381 78.9977 69.4838 79.1966L68.8327 82.4161C68.7965 82.5788 68.6337 82.7055 68.4529 82.7055H63.9673C63.7322 82.7055 63.5513 82.5246 63.5694 82.3256L63.9673 79.1062C63.9854 78.9434 64.1482 78.7987 64.3471 78.7987ZM64.1301 77.7497L64.6004 74.0056C64.6185 73.8248 64.7812 73.6982 64.9983 73.6982H70.153C70.3882 73.6982 70.5871 73.8971 70.5329 74.0961L69.7732 77.8401C69.737 78.0029 69.5743 78.1295 69.3934 78.1295H64.528C64.2929 78.1295 64.112 77.9486 64.1301 77.7497ZM70.4244 73.0109H65.1611C64.9259 73.0109 64.7451 72.83 64.7631 72.631L65.1972 69.0679C65.2153 68.8871 65.3781 68.7605 65.5951 68.7605H71.1478C71.383 68.7605 71.5819 68.9594 71.5276 69.1584L70.8042 72.7215C70.768 72.8843 70.6052 73.0109 70.4244 73.0109ZM50.384 69.0318L51.216 72.5949C51.2703 72.8119 51.0713 73.0109 50.8362 73.0109H45.8442C45.6814 73.0109 45.5368 72.9204 45.4825 72.7758L44.0175 69.2126C43.927 68.9956 44.1079 68.7605 44.3792 68.7605H49.9861C50.1851 68.7605 50.3479 68.869 50.384 69.0318ZM48.5211 78.7987H52.3555C52.5364 78.7987 52.6992 78.9072 52.7353 79.07L53.495 82.2895C53.5493 82.5065 53.3503 82.7055 53.1152 82.7055H49.8414C49.6787 82.7055 49.534 82.615 49.4797 82.4703L48.1594 79.2509C48.0508 79.0338 48.2498 78.7987 48.5211 78.7987Z" fill="white"/>
<path d="M122.977 62.9237H209.588C210.19 62.9237 210.677 63.4107 210.677 64.0114V71.6759C210.677 72.2766 210.19 72.7636 209.588 72.7636H122.977C122.376 72.7636 121.889 72.2766 121.889 71.6759V64.0114C121.889 63.4107 122.376 62.9237 122.977 62.9237ZM122.977 78.9135H220.687C221.288 78.9135 221.776 79.4005 221.776 80.0012V87.6658C221.776 88.2665 221.288 88.7534 220.687 88.7534H122.977C122.376 88.7534 121.889 88.2665 121.889 87.6658V80.0012C121.889 79.4005 122.376 78.9135 122.977 78.9135ZM122.977 94.9034H231.786C232.387 94.9034 232.874 95.3903 232.874 95.991V103.656C232.874 104.256 232.387 104.743 231.786 104.743H122.977C122.376 104.743 121.889 104.256 121.889 103.656V95.991C121.889 95.3903 122.376 94.9034 122.977 94.9034ZM122.977 110.893H198.49C199.091 110.893 199.579 111.38 199.579 111.981V119.645C199.579 120.246 199.091 120.733 198.49 120.733H122.977C122.376 120.733 121.889 120.246 121.889 119.645V111.981C121.889 111.38 122.376 110.893 122.977 110.893ZM122.977 46.9339H231.786C232.387 46.9339 232.874 47.4209 232.874 48.0216V55.6861C232.874 56.2868 232.387 56.7738 231.786 56.7738H122.977C122.376 56.7738 121.889 56.2868 121.889 55.6861V48.0216C121.889 47.4209 122.376 46.9339 122.977 46.9339Z" fill="#E1E5F0"/>
<path d="M0 10.8792C0 4.87077 4.87823 0 10.8833 0H265.117C271.127 0 276 4.87121 276 10.8792V23.9289H0V10.8792Z" fill="#E1E5F0"/>
<path d="M16.0593 17.4029C18.9155 17.4029 21.2309 15.0898 21.2309 12.2364C21.2309 9.38305 18.9155 7.06995 16.0593 7.06995C13.2031 7.06995 10.8877 9.38305 10.8877 12.2364C10.8877 15.0898 13.2031 17.4029 16.0593 17.4029Z" fill="#FF5645"/>
<path d="M32.9353 17.4029C35.7915 17.4029 38.1069 15.0898 38.1069 12.2364C38.1069 9.38305 35.7915 7.06995 32.9353 7.06995C30.0791 7.06995 27.7637 9.38305 27.7637 12.2364C27.7637 15.0898 30.0791 17.4029 32.9353 17.4029Z" fill="#FFCB3D"/>
<path d="M50.3557 17.4029C53.2119 17.4029 55.5273 15.0898 55.5273 12.2364C55.5273 9.38305 53.2119 7.06995 50.3557 7.06995C47.4995 7.06995 45.1841 9.38305 45.1841 12.2364C45.1841 15.0898 47.4995 17.4029 50.3557 17.4029Z" fill="#3ABF7C"/>
<path d="M162.15 136.495H125.506C123.516 136.495 121.889 134.885 121.889 132.877V131.81C121.889 129.821 123.498 128.193 125.506 128.193H162.132C164.122 128.193 165.749 129.803 165.749 131.81V132.877C165.749 134.885 164.14 136.495 162.15 136.495Z" fill="#1F7AFF"/>
</svg>
